<?xml version="1.0" standalone="no"?>
<!DOCTYPE svg PUBLIC "-//W3C//DTD SVG 20010904//EN"
 "http://www.w3.org/TR/2001/REC-SVG-20010904/DTD/svg10.dtd">
<svg version="1.0" xmlns="http://www.w3.org/2000/svg"
 width="512.000000pt" height="512.000000pt" viewBox="0 0 512.000000 512.000000"
 preserveAspectRatio="xMidYMid meet">
<metadata>
Created by potrace 1.14, written by Peter Selinger 2001-2017
</metadata>
<g transform="translate(0.000000,512.000000) scale(0.100000,-0.100000)"
fill="#000000" stroke="none">
<path d="M460 2560 l0 -2561 1173 6 c1566 7 1693 11 1912 66 564 141 963 568
1085 1159 25 119 36 414 20 510 -5 30 -12 72 -15 94 -4 21 -17 76 -31 123 -90
310 -308 585 -598 756 l-48 28 28 21 c146 116 306 350 373 546 52 152 64 230
67 412 3 172 -1 222 -32 350 -104 429 -445 801 -867 946 -94 32 -226 60 -357
74 -58 6 -121 13 -140 17 -19 3 -605 8 -1302 10 l-1268 5 0 -2562z m2400 1434
c188 -23 300 -105 339 -250 27 -100 17 -232 -24 -318 -56 -118 -179 -189 -365
-211 -25 -3 -285 -8 -577 -12 l-533 -6 0 408 0 408 558 -7 c306 -3 577 -9 602
-12z m-85 -1908 c22 -3 72 -8 110 -11 284 -26 440 -138 488 -352 16 -70 15
-190 -3 -264 -45 -189 -183 -300 -405 -323 -135 -14 -811 -23 -1237 -16 l-28
0 0 491 0 492 518 -6 c284 -4 535 -9 557 -11z"/>
</g>
</svg>
